<?xml version="1.0" standalone="no"?>
<svg xmlns="http://www.w3.org/2000/svg" xmlns:xlink="http://www.w3.org/1999/xlink" width="656pt" height="544pt" viewBox="0.00 0.00 655.78 544.00">
<g id="graph0" class="graph" transform="translate(14.144559054668271,476.66855634834945) scale(0.8705505632961241)" data-name="/home/rogerdtz/formal-recitation/build/top.aag">

<polygon fill="white" stroke="none" points="-4,4 -4,-540 651.78,-540 651.78,4 -4,4" style=""/>
<!-- clk -->
<g id="node1" class="node" pointer-events="visible" data-name="clk">

<polygon fill="none" stroke="rgb(229,229,229)" points="265.78,-529.2 211.78,-529.2 211.78,-493.2 265.78,-493.2 265.78,-529.2" style=""/>
<text text-anchor="middle" x="238.78" y="-507" font-family="Times,serif" font-size="14.00" style="">clk</text>
</g>
<!-- I0 -->
<g id="node2" class="node" pointer-events="visible" data-name="I0">

<polygon fill="none" stroke="rgb(229,229,255)" points="238.78,-450.2 200.45,-413.3 277.1,-413.3 238.78,-450.2" style=""/>
<text text-anchor="middle" x="238.78" y="-421.4" font-family="Times,serif" font-size="14.00" style="">I0</text>
</g>
<!-- clk&#45;&gt;I0 -->
<g id="edge1" class="edge" data-name="clk-&gt;I0">

<path fill="none" stroke="rgb(229,229,229)" d="M238.78,-492.88C238.78,-480.73 238.78,-464.32 238.78,-450.87" style=""/>
</g>
<!-- rst -->
<g id="node3" class="node" pointer-events="visible" data-name="rst">

<polygon fill="none" stroke="black" points="188.78,-207.2 134.78,-207.2 134.78,-171.2 188.78,-171.2 188.78,-207.2" style=""/>
<text text-anchor="middle" x="161.78" y="-185" font-family="Times,serif" font-size="14.00" style="">rst</text>
</g>
<!-- I1 -->
<g id="node4" class="node" pointer-events="visible" data-name="I1">

<polygon fill="none" stroke="blue" points="147.78,-135 109.45,-98.1 186.1,-98.1 147.78,-135" style=""/>
<text text-anchor="middle" x="147.78" y="-106.2" font-family="Times,serif" font-size="14.00" style="">I1</text>
</g>
<!-- rst&#45;&gt;I1 -->
<g id="edge2" class="edge" data-name="rst-&gt;I1">

<path fill="none" stroke="black" d="M158.6,-170.77C156.5,-159.27 153.75,-144.14 151.54,-132.03" style=""/>
</g>
<!-- req[0] -->
<g id="node5" class="node" pointer-events="visible" data-name="req[0]">

<polygon fill="none" stroke="black" points="257.78,-128.4 203.78,-128.4 203.78,-92.4 257.78,-92.4 257.78,-128.4" style=""/>
<text text-anchor="middle" x="230.78" y="-106.2" font-family="Times,serif" font-size="14.00" style="">req[0]</text>
</g>
<!-- I2 -->
<g id="node6" class="node" pointer-events="visible" data-name="I2">

<polygon fill="none" stroke="blue" points="225.78,-49.4 187.45,-12.5 264.1,-12.5 225.78,-49.4" style=""/>
<text text-anchor="middle" x="225.78" y="-20.6" font-family="Times,serif" font-size="14.00" style="">I2</text>
</g>
<!-- req[0]&#45;&gt;I2 -->
<g id="edge3" class="edge" data-name="req[0]-&gt;I2">

<path fill="none" stroke="black" d="M229.74,-92.08C228.99,-79.45 227.96,-62.23 227.14,-48.5" style=""/>
</g>
<!-- req[1] -->
<g id="node7" class="node" pointer-events="visible" data-name="req[1]">

<polygon fill="none" stroke="black" points="335.78,-128.4 281.78,-128.4 281.78,-92.4 335.78,-92.4 335.78,-128.4" style=""/>
<text text-anchor="middle" x="308.78" y="-106.2" font-family="Times,serif" font-size="14.00" style="">req[1]</text>
</g>
<!-- I3 -->
<g id="node8" class="node" pointer-events="visible" data-name="I3">

<polygon fill="none" stroke="blue" points="319.78,-49.4 281.45,-12.5 358.1,-12.5 319.78,-49.4" style=""/>
<text text-anchor="middle" x="319.78" y="-20.6" font-family="Times,serif" font-size="14.00" style="">I3</text>
</g>
<!-- req[1]&#45;&gt;I3 -->
<g id="edge4" class="edge" data-name="req[1]-&gt;I3">

<path fill="none" stroke="black" d="M311.06,-92.08C312.77,-79.07 315.12,-61.18 316.95,-47.26" style=""/>
</g>
<!-- 9 -->
<g id="node9" class="node" pointer-events="visible" data-name="9">

<ellipse fill="none" stroke="rgb(229,229,229)" cx="218.78" cy="-261.2" rx="27" ry="18" style=""/>
<text text-anchor="middle" x="218.78" y="-257" font-family="Times,serif" font-size="14.00" style="">9</text>
</g>
<!-- 9&#45;&gt;rst -->
<g id="edge6" class="edge" data-name="9-&gt;rst">

<path fill="none" stroke="rgb(229,229,229)" d="M206.41,-245.01C199.07,-235.99 189.6,-224.36 181.27,-214.13" style=""/>
<ellipse fill="rgb(229,229,229)" stroke="rgb(229,229,229)" cx="178.57" cy="-210.82" rx="4" ry="4" style=""/>
</g>
<!-- 8 -->
<g id="node10" class="node" pointer-events="visible" data-name="8">

<polygon fill="none" stroke="magenta" points="404.78,-207.2 350.78,-207.2 350.78,-171.2 404.78,-171.2 404.78,-207.2" style=""/>
<text text-anchor="middle" x="377.78" y="-185" font-family="Times,serif" font-size="14.00" style="">8</text>
</g>
<!-- 9&#45;&gt;8 -->
<g id="edge5" class="edge" data-name="9-&gt;8">

<path fill="none" stroke="rgb(229,229,229)" d="M240.89,-250.47C269.56,-237.84 319.55,-215.83 350.54,-202.19" style=""/>
</g>
<!-- 10 -->
<g id="node11" class="node" pointer-events="visible" data-name="10">

<ellipse fill="none" stroke="rgb(229,229,229)" cx="145.78" cy="-261.2" rx="27" ry="18" style=""/>
<text text-anchor="middle" x="145.78" y="-257" font-family="Times,serif" font-size="14.00" style="">10</text>
</g>
<!-- 10&#45;&gt;rst -->
<g id="edge8" class="edge" data-name="10-&gt;rst">

<path fill="none" stroke="rgb(229,229,229)" d="M149.73,-242.9C151.59,-234.76 153.85,-224.89 155.9,-215.9" style=""/>
<ellipse fill="rgb(229,229,229)" stroke="rgb(229,229,229)" cx="156.87" cy="-211.69" rx="4" ry="4" style=""/>
</g>
<!-- 7 -->
<g id="node12" class="node" pointer-events="visible" data-name="7">

<polygon fill="none" stroke="magenta" points="116.78,-207.2 62.78,-207.2 62.78,-171.2 116.78,-171.2 116.78,-207.2" style=""/>
<text text-anchor="middle" x="89.78" y="-185" font-family="Times,serif" font-size="14.00" style="">7</text>
</g>
<!-- 10&#45;&gt;7 -->
<g id="edge7" class="edge" data-name="10-&gt;7">

<path fill="none" stroke="rgb(229,229,229)" d="M133.63,-245.01C124.75,-233.91 112.7,-218.85 103.48,-207.33" style=""/>
</g>
<!-- 11 -->
<g id="node13" class="node" pointer-events="visible" data-name="11">

<ellipse fill="none" stroke="rgb(229,229,229)" cx="215.78" cy="-340" rx="27" ry="18" style=""/>
<text text-anchor="middle" x="215.78" y="-335.8" font-family="Times,serif" font-size="14.00" style="">11</text>
</g>
<!-- 11&#45;&gt;9 -->
<g id="edge10" class="edge" data-name="11-&gt;9">

<path fill="none" stroke="rgb(229,229,229)" d="M216.46,-321.57C216.95,-309 217.61,-292.11 218.1,-279.56" style=""/>
</g>
<!-- 11&#45;&gt;10 -->
<g id="edge9" class="edge" data-name="11-&gt;10">

<path fill="none" stroke="rgb(229,229,229)" d="M202.28,-324.19C189.97,-310.68 171.85,-290.8 159.47,-277.22" style=""/>
</g>
<!-- 12 -->
<g id="node14" class="node" pointer-events="visible" data-name="12">

<ellipse fill="none" stroke="black" cx="34.78" cy="-261.2" rx="27" ry="18" style=""/>
<text text-anchor="middle" x="34.78" y="-257" font-family="Times,serif" font-size="14.00" style="">12</text>
</g>
<!-- 12&#45;&gt;rst -->
<g id="edge12" class="edge" data-name="12-&gt;rst">

<path fill="none" stroke="black" d="M55.18,-248.95C74.38,-238.37 103.51,-222.31 126.48,-209.66" style=""/>
<ellipse fill="black" stroke="black" cx="130.38" cy="-207.51" rx="4" ry="4" style=""/>
</g>
<!-- 12&#45;&gt;req[0] -->
<g id="edge11" class="edge" data-name="12-&gt;req[0]">

<path fill="none" stroke="black" d="M33.46,-243.02C32.92,-223.07 35.28,-190.45 53.78,-171.2 98.6,-124.57 135.65,-161.4 194.78,-135.2 198.89,-133.38 203.05,-131.1 207.01,-128.69" style=""/>
</g>
<!-- 13 -->
<g id="node15" class="node" pointer-events="visible" data-name="13">

<ellipse fill="none" stroke="black" cx="295.78" cy="-189.2" rx="27" ry="18" style=""/>
<text text-anchor="middle" x="295.78" y="-185" font-family="Times,serif" font-size="14.00" style="">13</text>
</g>
<!-- 13&#45;&gt;req[0] -->
<g id="edge14" class="edge" data-name="13-&gt;req[0]">

<path fill="none" stroke="black" d="M282.94,-173.03C273.82,-162.26 261.4,-147.58 250.97,-135.25" style=""/>
<ellipse fill="black" stroke="black" cx="248.32" cy="-132.12" rx="4" ry="4" style=""/>
</g>
<!-- 13&#45;&gt;req[1] -->
<g id="edge13" class="edge" data-name="13-&gt;req[1]">

<path fill="none" stroke="black" d="M298.66,-171.16C300.8,-158.52 303.71,-141.35 305.86,-128.66" style=""/>
</g>
<!-- 14 -->
<g id="node16" class="node" pointer-events="visible" data-name="14">

<ellipse fill="none" stroke="black" cx="295.78" cy="-261.2" rx="27" ry="18" style=""/>
<text text-anchor="middle" x="295.78" y="-257" font-family="Times,serif" font-size="14.00" style="">14</text>
</g>
<!-- 14&#45;&gt;rst -->
<g id="edge16" class="edge" data-name="14-&gt;rst">

<path fill="none" stroke="black" d="M274.84,-249.26C253.99,-238.37 221.59,-221.44 196.81,-208.5" style=""/>
<ellipse fill="black" stroke="black" cx="193.05" cy="-206.53" rx="4" ry="4" style=""/>
</g>
<!-- 14&#45;&gt;13 -->
<g id="edge15" class="edge" data-name="14-&gt;13">

<path fill="none" stroke="black" d="M295.78,-242.9C295.78,-232.05 295.78,-218.12 295.78,-207.3" style=""/>
</g>
<!-- 15 -->
<g id="node17" class="node" pointer-events="visible" data-name="15">

<ellipse fill="none" stroke="rgb(229,229,229)" cx="493.78" cy="-425.6" rx="27" ry="18" style=""/>
<text text-anchor="middle" x="493.78" y="-421.4" font-family="Times,serif" font-size="14.00" style="">15</text>
</g>
<!-- 6 -->
<g id="node18" class="node" pointer-events="visible" data-name="6">

<polygon fill="none" stroke="rgb(255,255,255)" points="575.78,-358 521.78,-358 521.78,-322 575.78,-322 575.78,-358" style=""/>
<text text-anchor="middle" x="548.78" y="-335.8" font-family="Times,serif" font-size="14.00" style="">6</text>
</g>
<!-- 15&#45;&gt;6 -->
<g id="edge17" class="edge" data-name="15-&gt;6">

<path fill="none" stroke="rgb(229,229,229)" d="M504.12,-408.88C513.58,-394.5 527.55,-373.26 537.34,-358.39" style=""/>
</g>
<!-- 5 -->
<g id="node19" class="node" pointer-events="visible" data-name="5">

<polygon fill="none" stroke="rgb(255,255,255)" points="503.78,-358 449.78,-358 449.78,-322 503.78,-322 503.78,-358" style=""/>
<text text-anchor="middle" x="476.78" y="-335.8" font-family="Times,serif" font-size="14.00" style="">5</text>
</g>
<!-- 15&#45;&gt;5 -->
<g id="edge18" class="edge" data-name="15-&gt;5">

<path fill="none" stroke="rgb(229,229,229)" d="M490.26,-407.28C487.34,-392.93 483.21,-372.64 480.3,-358.3" style=""/>
</g>
<!-- O0 -->
<g id="node20" class="node" pointer-events="visible" data-name="O0">

<polygon fill="none" stroke="rgb(229,229,255)" points="124.78,-364.6 78.92,-327.7 170.64,-327.7 124.78,-364.6" style=""/>
<text text-anchor="middle" x="124.78" y="-335.8" font-family="Times,serif" font-size="14.00" style="">O0</text>
</g>
<!-- O0&#45;&gt;10 -->
<g id="edge19" class="edge" data-name="O0-&gt;10">

<path fill="none" stroke="rgb(229,229,229)" d="M127.97,-327.34C131.46,-314.58 137.08,-294.01 141.08,-279.4" style=""/>
</g>
<!-- O1 -->
<g id="node21" class="node" pointer-events="visible" data-name="O1">

<polygon fill="none" stroke="rgb(229,229,255)" points="306.78,-364.6 260.92,-327.7 352.64,-327.7 306.78,-364.6" style=""/>
<text text-anchor="middle" x="306.78" y="-335.8" font-family="Times,serif" font-size="14.00" style="">O1</text>
</g>
<!-- O1&#45;&gt;9 -->
<g id="edge20" class="edge" data-name="O1-&gt;9">

<path fill="none" stroke="rgb(229,229,229)" d="M293.41,-327.34C277.64,-313.57 251.45,-290.71 234.66,-276.06" style=""/>
</g>
<!-- B0 -->
<g id="node22" class="node" pointer-events="visible" data-name="B0">

<polygon fill="none" stroke="rgb(255,229,229)" points="493.78,-535.8 449.05,-498.9 538.5,-498.9 493.78,-535.8" style=""/>
<text text-anchor="middle" x="493.78" y="-507" font-family="Times,serif" font-size="14.00" style="">B0</text>
</g>
<!-- B0&#45;&gt;15 -->
<g id="edge21" class="edge" data-name="B0-&gt;15">

<path fill="none" stroke="rgb(229,229,229)" d="M493.78,-498.58C493.78,-484.4 493.78,-460.3 493.78,-443.93" style=""/>
</g>
<!-- L0 -->
<g id="node23" class="node" pointer-events="visible" data-name="L0">

<polygon fill="none" stroke="rgb(255,255,255)" points="325.78,-443.6 295.22,-425.6 325.78,-407.6 356.34,-425.6 325.78,-443.6" style=""/>
<text text-anchor="middle" x="325.78" y="-421.4" font-family="Times,serif" font-size="14.00" style="">L0</text>
</g>
<!-- L0&#45;&gt;11 -->
<g id="edge22" class="edge" data-name="L0-&gt;11">

<path fill="none" stroke="rgb(229,229,229)" d="M313.16,-415.01C293.41,-400 255.15,-370.93 232.92,-354.03" style=""/>
</g>
<!-- L0&#45;&gt;5 -->
<g id="edge23" class="edge" data-name="L0-&gt;5">

<path fill="none" stroke="rgb(255,255,255)" stroke-dasharray="5,2" d="M342.07,-416.8C364.62,-405.85 406.45,-385 440.78,-364.8 444.14,-362.82 447.62,-360.67 451.03,-358.49" style=""/>
</g>
<!-- L1 -->
<g id="node24" class="node" pointer-events="visible" data-name="L1">

<polygon fill="none" stroke="rgb(255,255,255)" points="603.78,-443.6 573.22,-425.6 603.78,-407.6 634.34,-425.6 603.78,-443.6" style=""/>
<text text-anchor="middle" x="603.78" y="-421.4" font-family="Times,serif" font-size="14.00" style="">L1</text>
</g>
<!-- L1&#45;&gt;6 -->
<g id="edge25" class="edge" data-name="L1-&gt;6">

<path fill="none" stroke="rgb(255,255,255)" stroke-dasharray="5,2" d="M595.66,-412.26C586.28,-398 570.77,-374.43 560.18,-358.33" style=""/>
</g>
<!-- 0 -->
<g id="node25" class="node" pointer-events="visible" data-name="0">

<polygon fill="none" stroke="rgb(255,229,229)" points="647.78,-358 593.78,-358 593.78,-322 647.78,-322 647.78,-358" style=""/>
<text text-anchor="middle" x="620.78" y="-335.8" font-family="Times,serif" font-size="14.00" style="">0</text>
</g>
<!-- L1&#45;&gt;0 -->
<g id="edge24" class="edge" data-name="L1-&gt;0">

<path fill="none" stroke="rgb(229,229,229)" d="M606.9,-409.27C609.3,-397.43 612.69,-380.8 615.51,-366.91" style=""/>
<ellipse fill="rgb(229,229,229)" stroke="rgb(229,229,229)" cx="616.37" cy="-362.67" rx="4" ry="4" style=""/>
</g>
<!-- L2 -->
<g id="node26" class="node" pointer-events="visible" data-name="L2">

<polygon fill="none" stroke="magenta" points="30.78,-358 0.22,-340 30.78,-322 61.34,-340 30.78,-358" style=""/>
<text text-anchor="middle" x="30.78" y="-335.8" font-family="Times,serif" font-size="14.00" style="">L2</text>
</g>
<!-- L2&#45;&gt;7 -->
<g id="edge27" class="edge" data-name="L2-&gt;7">

<path fill="none" stroke="magenta" stroke-dasharray="5,2" d="M40.5,-327.41C49.66,-315.9 63.09,-297.38 70.78,-279.2 80.81,-255.48 85.77,-225.88 88.05,-207.51" style=""/>
</g>
<!-- L2&#45;&gt;12 -->
<g id="edge26" class="edge" data-name="L2-&gt;12">

<path fill="none" stroke="black" d="M31.67,-321.96C32.32,-309.32 33.22,-292.15 33.88,-279.46" style=""/>
</g>
<!-- L3 -->
<g id="node27" class="node" pointer-events="visible" data-name="L3">

<polygon fill="none" stroke="magenta" points="400.78,-358 370.22,-340 400.78,-322 431.34,-340 400.78,-358" style=""/>
<text text-anchor="middle" x="400.78" y="-335.8" font-family="Times,serif" font-size="14.00" style="">L3</text>
</g>
<!-- L3&#45;&gt;8 -->
<g id="edge29" class="edge" data-name="L3-&gt;8">

<path fill="none" stroke="magenta" stroke-dasharray="5,2" d="M398.32,-323.08C393.96,-294.89 384.93,-236.44 380.43,-207.38" style=""/>
</g>
<!-- L3&#45;&gt;14 -->
<g id="edge28" class="edge" data-name="L3-&gt;14">

<path fill="none" stroke="black" d="M387.48,-329.27C368.72,-315.55 334.44,-290.47 313.52,-275.18" style=""/>
</g>
</g>
</svg>